<svg role="img" viewBox="0 0 24 24" xmlns="http://www.w3.org/2000/svg"><path fill="#374151" d="M11.5725 0c-.1763 0-.3098.0013-.3584.0067-.0516.0053-.2159.021-.3636.0328-3.4088.3073-6.6017 2.1463-8.624 4.9728C1.1004 6.584.3802 8.3666.1082 10.255c-.0962.659-.108.8537-.108 1.7474s.012 1.0884.108 1.7476c.652 4.506 3.8591 8.2919 8.2087 9.6945.7789.2511 1.6.4223 2.5337.5255.3636.0394.7131.0551 1.2644.0551.5514 0 .9009-.0157 1.2644-.0551.9338-.1032 1.7549-.2744 2.5337-.5255 4.3496-1.4026 7.5567-5.1885 8.2087-9.6945.0961-.6591.108-.8537.108-1.7476s-.012-1.0884-.108-1.7474c-.6522-4.507-3.8592-8.2919-8.2087-9.6945-.7788-.2511-1.6-.4223-2.5337-.5255-.3636-.0394-.7131-.0551-1.2644-.0551zm2.0519 3.9569c.3853.0055.7906.0699 1.1896.1967.6997.2203 1.3293.6056 1.8194 1.1157.4901.5102.8303 1.1489 1.0023 1.8586.0902.3766.1378.7586.1378 1.1455s-.0476.7689-.1378 1.1455c-.1719.7097-.5122 1.3484-1.0023 1.8585-.4901.5101-1.1197.8954-1.8194 1.1156-.6945.2188-1.4506.2733-2.1771.1573-.7265-.116-1.4033-.4056-1.9507-.8338l6.2832-3.6277a.446.446 0 00.2142-.3817.446.446 0 00-.2142-.3818l-3.0322-1.7508-.0001-.0001-3.2509-1.8771c.1591-.1113.3302-.2113.5132-.2999.4901-.2351 1.0245-.3577 1.5643-.3577zm-2.4098 2.0672l4.8645 2.8089-4.8645 2.809v-5.6179zm-1.8313.0001v7.4908c0 .4481.2046.8676.5547 1.1462.3501.2786.8045.3968 1.2555.3217.4509-.0751.8465-.3427 1.0793-.7326l-7.0014-4.0513a2.4707 2.4707 0 01-.0891-.0585c-.2685-.1837-.4907-.424-.6528-.7003-.1622-.2763-.2613-.5852-.2903-.9065-.029-.3214.0029-.6461.0943-.9518.0915-.3058.2399-.5881.4359-.8311.196-.243.4353-.4425.7072-.5879.272-.1454.5701-.2337.8762-.2602.3061-.0265.6139.0087.9065.1033v-.0001c.2926.0946.5608.2471.7881.4491l.0019.0012.0015.0011z"/></svg> 